Coordinates
version=1
nRows=11
nColumns=46
inDegrees=yes

Units are S.I. units (second, meters, Newtons, ...)
Angles are in degrees.

endheader
time	pelvis_tilt	pelvis_list	pelvis_rotation	pelvis_tx	pelvis_ty	pelvis_tz	bb_angle	bb_tx	bb_ty	bb_tz	hip_flexion_r	hip_adduction_r	hip_rotation_r	knee_angle_r	knee_angle_r_beta	ankle_angle_r	subtalar_angle_r	mtp_angle_r	crank_angle_r	hip_flexion_l	hip_adduction_l	hip_rotation_l	knee_angle_l	knee_angle_l_beta	ankle_angle_l	subtalar_angle_l	mtp_angle_l	crank_angle_l	lumbar_extension	lumbar_bending	lumbar_rotation	arm_flex_r	arm_add_r	arm_rot_r	elbow_flex_r	pro_sup_r	wrist_flex_r	wrist_dev_r	arm_flex_l	arm_add_l	arm_rot_l	elbow_flex_l	pro_sup_l	wrist_flex_l	wrist_dev_l
      2.50500000	    -20.20723148	      8.74531282	      7.03668721	      0.15496339	      1.05611866	     -0.20426814	      0.00000000	      0.50000000	      0.00000000	      0.25000000	     49.48245812	    -11.30028901	      8.12038464	     54.17352451	      0.94550637	    -34.28786428	    -18.79764549	      0.00000000	      0.00000000	     84.66979281	      6.25179667	     -0.91245405	     97.60332720	      1.70349942	     24.82988310	    -12.93005725	      0.00000000	      0.00000000	    -54.86892997	     -0.97257638	    -11.28524674	     87.72779169	    -11.10526652	     32.99637638	     52.93486410	     43.13498087	      0.00000000	      0.00000000	     83.19186964	    -11.65257997	     17.34811881	     58.66036376	     46.32208635	      0.00000000	      0.00000000
      2.51000000	    -20.16211690	      8.52407515	      6.85631610	      0.15353648	      1.05546960	     -0.20348319	      0.00000000	      0.50000000	      0.00000000	      0.25000000	     50.10050305	    -10.71519649	      8.46316170	     56.13629939	      0.97976325	    -33.76759643	    -19.23055499	      0.00000000	      0.00000000	     83.85565718	      6.01652605	     -0.78340092	     95.63128255	      1.66908075	     25.44970011	    -13.13188802	      0.00000000	      0.00000000	    -54.86282856	     -1.01943957	    -10.95450079	     87.83545356	    -11.18304170	     32.90028802	     52.90424568	     43.12838973	      0.00000000	      0.00000000	     83.22768781	    -11.55746981	     17.21093801	     58.73687271	     46.32631323	      0.00000000	      0.00000000
      2.51500000	    -20.19522210	      8.38643033	      6.65424380	      0.15229011	      1.05468462	     -0.20265809	      0.00000000	      0.50000000	      0.00000000	      0.25000000	     50.82240841	    -10.21188448	      8.80864053	     58.11882089	      1.01436478	    -33.13308898	    -19.61466621	      0.00000000	      0.00000000	     83.09045075	      5.75398360	     -0.73772838	     93.59618662	      1.63356162	     25.90140662	    -13.36173764	      0.00000000	      0.00000000	    -54.80204086	     -1.18635229	    -10.67360111	     87.91160906	    -11.27345193	     32.80767224	     52.87983338	     43.12352975	      0.00000000	      0.00000000	     83.23628644	    -11.40096092	     17.07689509	     58.82281879	     46.33307548	      0.00000000	      0.00000000
      2.52000000	    -20.27141274	      8.28131587	      6.41402690	      0.15114727	      1.05389117	     -0.20183550	      0.00000000	      0.50000000	      0.00000000	      0.25000000	     51.59845503	     -9.72153106	      9.14474554	     60.07922523	      1.04858029	    -32.43220841	    -19.88233532	      0.00000000	      0.00000000	     82.35700351	      5.49076592	     -0.74879379	     91.55584768	      1.59795099	     26.13111261	    -13.64986340	      0.00000000	      0.00000000	    -54.69693100	     -1.45256924	    -10.43779117	     87.95142736	    -11.39380099	     32.70780214	     52.86076517	     43.12076362	      0.00000000	      0.00000000	     83.22970264	    -11.19042277	     16.92024853	     58.91290822	     46.33959240	      0.00000000	      0.00000000
      2.52500000	    -20.42311778	      8.25585622	      6.15561222	      0.15019664	      1.05314664	     -0.20113956	      0.00000000	      0.50000000	      0.00000000	      0.25000000	     52.48709346	     -9.33464275	      9.51960539	     62.02858304	      1.08260300	    -31.64338713	    -19.73012467	      0.00000000	      0.00000000	     81.63855958	      5.28033571	     -0.81228728	     89.43549773	      1.56094390	     26.06842884	    -14.05884899	      0.00000000	      0.00000000	    -54.52242531	     -1.77671314	    -10.19819749	     87.87176447	    -11.59392242	     32.55617070	     52.89444488	     43.13573724	      0.00000000	      0.00000000	     83.20838751	    -10.77107845	     16.47930769	     59.02827241	     46.33036449	      0.00000000	      0.00000000
      2.53000000	    -20.42036414	      7.96989134	      5.87705855	      0.14941882	      1.05247845	     -0.20030967	      0.00000000	      0.50000000	      0.00000000	      0.25000000	     53.17910940	     -8.75673677	      9.54172414	     63.96488057	      1.11639777	    -30.97937502	    -20.11251434	      0.00000000	      0.00000000	     80.83266430	      4.95036388	     -0.60163814	     87.44244288	      1.52615853	     26.03659395	    -14.20286708	      0.00000000	      0.00000000	    -54.52787822	     -1.84230298	     -9.81971374	     87.96013723	    -11.61005341	     32.50054296	     52.94397643	     43.14701958	      0.00000000	      0.00000000	     83.19245742	    -10.70730644	     16.28707093	     59.07567092	     46.32603967	      0.00000000	      0.00000000
      2.53500000	    -20.41647146	      7.72674061	      5.56654346	      0.14878715	      1.05191193	     -0.19964509	      0.00000000	      0.50000000	      0.00000000	      0.25000000	     53.91265016	     -8.25168355	      9.53866711	     65.91473533	      1.15042916	    -30.34804890	    -20.34022063	      0.00000000	      0.00000000	     79.98989219	      4.64323692	     -0.38446232	     85.42922048	      1.49102117	     25.83150738	    -14.36350625	      0.00000000	      0.00000000	    -54.48239170	     -1.94415418	     -9.43024999	     88.02113647	    -11.61928088	     32.45877480	     52.97136484	     43.15421856	      0.00000000	      0.00000000	     83.19200393	    -10.64334514	     16.12661810	     59.16544486	     46.33055122	      0.00000000	      0.00000000
      2.54000000	    -20.47948207	      7.64954926	      5.24551907	      0.14830964	      1.05144972	     -0.19902831	      0.00000000	      0.50000000	      0.00000000	      0.25000000	     54.75682884	     -7.90823128	      9.63964035	     67.87693270	      1.18467596	    -29.47211993	    -20.24772993	      0.00000000	      0.00000000	     79.14530418	      4.39973618	     -0.35449149	     83.33488700	      1.45446816	     25.29224982	    -14.82998277	      0.00000000	      0.00000000	    -54.43777700	     -2.23517742	     -9.24794399	     87.99615190	    -11.73398435	     32.35712599	     53.00646180	     43.16491238	      0.00000000	      0.00000000	     83.17324611	    -10.40950025	     15.87276011	     59.34355131	     46.34646174	      0.00000000	      0.00000000
      2.54500000	    -20.47198645	      7.26688361	      4.85714273	      0.14787732	      1.05113170	     -0.19845375	      0.00000000	      0.50000000	      0.00000000	      0.25000000	     55.47203477	     -7.31289283	      9.45892253	     69.65974663	      1.21579193	    -29.12319928	    -20.38817900	      0.00000000	      0.00000000	     78.26255276	      4.01316610	      0.02998435	     81.30992476	      1.41912590	     24.91775944	    -14.80301678	      0.00000000	      0.00000000	    -54.42753142	     -2.24346263	     -8.76078232	     88.02392420	    -11.64115932	     32.37002708	     53.04455867	     43.17591142	      0.00000000	      0.00000000	     83.16292316	    -10.45998751	     15.75458096	     59.40468165	     46.34846966	      0.00000000	      0.00000000
      2.55000000	    -20.70217883	      7.39591292	      4.62361399	      0.14752251	      1.05036776	     -0.19874585	      0.00000000	      0.50000000	      0.00000000	      0.25000000	     56.64274552	     -7.40389230	      9.48184443	     71.72194038	      1.25178401	    -28.03191290	    -19.99987572	      0.00000000	      0.00000000	     77.54619097	      4.07826219	     -0.02784003	     79.22656609	      1.38276443	     23.90191651	    -15.67295409	      0.00000000	      0.00000000	    -54.22308590	     -2.62612776	     -8.80703824	     88.01657577	    -11.78623177	     32.24990754	     53.11460064	     43.19519981	      0.00000000	      0.00000000	     83.00966021	    -10.17738909	     15.42265794	     59.69583603	     46.38285062	      0.00000000	      0.00000000
      2.55500000	    -20.56864283	      7.17006291	      4.06376545	      0.14760161	      1.05071428	     -0.19765354	      0.00000000	      0.50000000	      0.00000000	      0.25000000	     57.21494358	     -6.73581883	      9.52347916	     73.45189622	      1.28197743	    -27.71538405	    -20.44353716	      0.00000000	      0.00000000	     76.40324285	      3.49683369	      0.06456834	     77.18205087	      1.34708091	     23.08153116	    -15.93899356	      0.00000000	      0.00000000	    -54.59555422	     -2.90235394	     -8.41467253	     87.53843214	    -11.66932966	     30.44627897	     54.80808010	     43.45043700	      0.00000000	      0.00000000	     82.48783919	     -9.87823957	     14.09886140	     61.50227980	     46.05443056	      0.00000000	      0.00000000
